<?xml version="1.0" encoding="UTF-8"?>
<svg id="Layer_1" data-name="Layer 1" xmlns="http://www.w3.org/2000/svg" viewBox="0 0 1080 1080">
  <defs>
    <style>
      .cls-1 {
        fill: #f2f7f3;
      }

      .cls-2 {
        fill: #010101;
      }

      .cls-3 {
        fill: #877c24;
      }

      .cls-4 {
        fill: #95582b;
      }

      .cls-5 {
        fill: #ca932a;
      }

      .cls-6 {
        fill: #985a29;
      }

      .cls-7 {
        fill: #986531;
      }

      .cls-8 {
        fill: #1d3358;
      }

      .cls-9 {
        fill: #272323;
      }

      .cls-10 {
        fill: #96892c;
      }

      .cls-11 {
        fill: #95592a;
      }

      .cls-12 {
        fill: #f8ee85;
      }

      .cls-13 {
        fill: #1b3253;
      }

      .cls-14 {
        fill: #272324;
      }

      .cls-15 {
        fill: #010201;
      }

      .cls-16 {
        fill: #887b1c;
      }

      .cls-17 {
        fill: #cb932a;
      }

      .cls-18 {
        fill: #cc9429;
      }

      .cls-19 {
        fill: #000201;
      }

      .cls-20 {
        fill: #ca952d;
      }

      .cls-21 {
        fill: #27417c;
      }

      .cls-22 {
        fill: #9e2721;
      }

      .cls-23 {
        fill: #010302;
      }

      .cls-24 {
        fill: #f0e050;
      }

      .cls-25 {
        fill: #f9ed87;
      }

      .cls-26 {
        fill: #c0ae71;
      }

      .cls-27 {
        fill: #83761f;
      }

      .cls-28 {
        fill: #e5ca59;
      }

      .cls-29 {
        fill: #fbfcfd;
      }

      .cls-30 {
        fill: #fafbfb;
      }

      .cls-31 {
        fill: #975b2a;
      }

      .cls-32 {
        fill: #945729;
      }

      .cls-33 {
        fill: #ca922a;
      }

      .cls-34 {
        fill: #f6f9f4;
      }

      .cls-35 {
        fill: #c68f2a;
      }

      .cls-36 {
        fill: #875a38;
      }

      .cls-37 {
        fill: #010202;
      }

      .cls-38 {
        fill: #8e8126;
      }

      .cls-39 {
        fill: #070908;
      }

      .cls-40 {
        fill: #877a1d;
      }
    </style>
  </defs>
  <path class="cls-28" d="M724.36,718.58l-25.56,15.24-11.24,5.99s-4.78,2.32-10.18,5.5l-7.53,2.98c-15.98,7.05-32.3,12.62-49,17.28-21.71-14.1-53.79-11.93-68.26,10.37l-1.17.94c-16.68.54-33.65-.02-50.91-1.66-1.28.21-2.15-.08-2.61-.85,0-.17-.3-.41-.45-.27v-17.46s-33.39.7-33.39.7l-.06,11.42c-.11.35-.32.86-.58.84-.8-.06-7.26-1.16-7.49-1.47-.11-2.76-.25-5.49-.42-8.2h-27.47s-5.12-.98-5.12-.98l-29.51-11.83c-1.63-.18-2.25-.77-1.87-1.77l.95-1.18c2.97-.69,9.92-4.37,11.14-7.02.19-.42-5.8-6.81-6.22-6.63-9.84,8.93-24.77,1.56-25.01-11.37s14.16-20.97,24.87-12.66c.43-.17,6.48-6.01,6.68-6.42.54-1.08-7.78-5.62-9.28-6.15-19.88-7.03-38.64,14.87-31.42,34.01l-.45,1.58c.51,1.25.16,2.25-1.23,1.46-15.58-8.83-30.41-20.29-44.45-31.36l-2.41-2.59-3.25-5.67c-.48.19-.59.62-.75.92-.66.02-1.04-.14-1.72-.74-23.84-20.92-44.27-45.12-61.06-72.09-5.73-9.2-10.81-18.15-15.57-27.89-26.19-53.6-36.73-114.73-29.4-174.15,4.91-39.85,17.03-78.4,36.52-113.48,12.93-23.28,28.61-44.75,46.61-64.25l18.2-18.2c45.26-41.68,100.98-70.14,161.45-82.34,48.06-9.69,97.77-9.44,145.59,1.78,99.34,23.31,183.22,89.97,226.68,182.4,14.44,30.71,23.22,63.63,27.18,97.31,5.61,47.73-1.14,97.74-17.68,142.61l-7.64,18.61c-16.09,35.7-36.97,65.66-64.22,93.68l-5.33,5.47-7.92,7.46c-11.17,9.86-22.56,19.03-34.81,27.52l-3.24,2.6Z"/>
  <rect class="cls-9" x="248.82" y="962.46" width="662.33" height="15.97"/>
  <polygon class="cls-23" points="898.66 889.74 858.9 857.04 812.17 818.01 812.16 888.44 778.45 889.2 778.49 756.25 813.61 784.48 865.14 826.91 865.15 759.86 898.7 759.25 898.66 889.74"/>
  <path class="cls-4" d="M455.43,786.81l.64.87,7.36,1.38.49,1.04-.03,10.29-30.89-7.18-18.94-5.77-6.07.02.03,21.29c-.2.19-.56.05-.5-.32v-21.46s14.46.15,14.46.15l22.84.12,10.61-.42Z"/>
  <path class="cls-23" d="M700.7,757.17c6.64-.39,12.72-.2,19.16,1.01,17.03,3.19,32.39,11.92,43.07,25.7,13.2,17.03,16.99,39.74,10.27,60.31-4.51,13.81-13.56,25.44-25.43,33.68-36.08,25.07-87.81,12.43-106.42-26.94-9.08-19.21-7.7-41.8,3.09-59.9-.05-.38-.08-.76-.04-1.13.25-2.84,7.58-11.57,10.81-12.66.09-.41.2-.81.36-1.19,1.76-3.99,15.68-11.74,20.22-13.75s19.59-7.13,23.78-5.67c.39.14.76.33,1.12.55ZM706.01,786.62c-20.51,0-37.14,16.63-37.14,37.14s16.63,37.14,37.14,37.14,37.14-16.63,37.14-37.14-16.63-37.14-37.14-37.14Z"/>
  <path class="cls-35" d="M464.01,768.76l-.09,21.35-13.1-2.45c2.73-.62,4.94.37,4.6-.84l.1-26.88c.4,0,.52.42.51.87l-.1,6.4,8.08,1.55Z"/>
  <path class="cls-18" d="M606.98,789.57c-.27.83-.8.82-1.51.93l-26.38,3.96-.28-2.27c.81-2.76,2.34-4.85,4.86-6.21,7.58-4.08,16.23-1.12,23.31,3.59Z"/>
  <path class="cls-23" d="M620.85,765.57c1.2-.54,7.53,4.17,7.8,4.75.21.44.28.63.33,1.1.11.98-9.71,14.26-11.3,16.01l-.68-.09.5.89c-.57,1-4.43,6.12-5.18,6.25-.82.15-4.71-3-5.43-3.78l.09-1.13-1.36.2c-7.5-5.12-21.11-8.23-25.67,1.93l-1.14.49c-.28,1.34-.05,2.11.7,2.3.48,3.62,3.22,6.66,6.46,8.2l.15,1.06,10.21,3.66c6.25,2.24,12.32,4.22,17.98,7.62,7.35,4.43,12.52,10.83,15.06,19.07,6.05,19.63-.24,41.09-18.64,50.74-16.59,8.7-35.92,7.31-52.69-.43-5.09-2.44-9.64-5.27-13.73-9.41l17.7-23.97c9.37,9.84,27.06,14.71,35.7,4.5,2.34-2.88,2.4-6.69.36-9.86-1.57-2.44-3.96-4.25-6.71-5.35l-15.95-6.39c-13.23-5.3-24.62-12.44-27.76-27.09-2.04-2.02-2.69-7.38-1.06-9.77l-.87-1.56c.5-5.69,1.61-13.33,4.89-18.11.52-.76.92-1.34,1.97-1.47.31-3.58,4.25-7.04,7.03-9.42,16.33-13.99,42.48-13.73,60.29-2.63.23.15.39.41.55.71s.28.64.38.98Z"/>
  <path class="cls-23" d="M351.66,759.89c-.03-.22-.04-.43.02-.62.3-.97,17.79-.81,20.03.06l.86.76.03,9.88-.93.66v119.48s-28.94-23.95-28.94-23.95l-57.32-47.87v70.37s-33.81.19-33.81.19l.04-132.59,14.17,11.28,72.67,59.7.08-67.21,13.1-.15Z"/>
  <path class="cls-23" d="M428.06,759.94l.43-.93c8.83,0,17.66,0,26.49,0l.55.93c.28,2.36.35,4.77.19,7.23l.71.39-.07,18.72-.93.55c-1.35.35-2.8.51-4.35.48l-.24.63c-10.59.26-21.19.29-31.8.09-3.69-.64-7.65-1.24-11.28-.5-.13,7.16-.04,14.24.26,21.24l26.82.03,6.77,27.49-33.76-.02v24.01s51.81.02,51.81.02l-.28,27.22-85.19-.02.13-115.55-.92-1.15.1-10.17.94-.65.32-.93c16.04-.01,32.13-.02,48.26-.03l5.04.93Z"/>
  <path class="cls-23" d="M497.46,774.11c.28,7.01.37,14.09.26,21.26.4.13.71.27.72.43.1,1.77.35,7.46.02,8.93l-.93.56.04,52.42h43.31s-9.04,29.78-9.04,29.78l-67.96.03.02-87.12-.9-.42c-.37-.27-.19-8.79,0-9.21.15-.35.57-.52.93-.66l-.93-.43c.03-6.78.06-13.57.08-20.36l.93-.55-.93-.54c-.11-1.48-.08-10.75.4-11.32.11-.13.27-.23.45-.31,11.33-.62,22.63-.8,33.9-.56l.56.93v16.59s-.92.55-.92.55Z"/>
  <polygon class="cls-19" points="280.9 732.34 277.21 744.41 250.45 744.45 250.47 692.75 263.65 692.1 263.67 732.25 280.9 732.34"/>
  <path class="cls-15" d="M725.71,947.53l.52-24.66c-5.82,5.94-10.27,12.53-14.89,19.23s-10.11,6.3-10.07,4.6l.75-31.39c1.57-1.77,3.37-2.86,5.61-3.08,1.52-.05,2.88.91,2.84,2.45l-.48,18.01c5.9-6.56,11.52-12.69,18.5-17.6,1.7-1.2,3.74-1.79,5.53-.67l-.37,30.54c-1.84,2.08-4.75,3.19-7.93,2.59Z"/>
  <path class="cls-37" d="M427.8,940.36c2.79-1.08,4.14-6.09,7.17-4.48,4.07,2.16-5.41,15.53-18.5,12.22-4.43-1.12-8.66-4.43-10.88-9.19-3.82-8.17-3.47-17.03-.13-25.37,3.33-8.31,9.12-15.34,17.46-18.86,6.87-2.9,14.68.03,15.05,4.38.21,2.38-2.27,5.01-3.76,5.15-2.82.26-4.49-5.95-11.64-3.85-3.81,1.12-6.55,3.83-8.52,7.33-4.91,8.74-5.44,19.37-.05,27.95,2.87,4.57,8.75,6.67,13.79,4.72Z"/>
  <path class="cls-37" d="M787.82,922.97c-2.61.86-5.27.53-8.07.6-.17,7.25.62,14.48-.62,21.73-.61,2.75-5.43,3.58-7.93,3.15l.2-24.92-5.44-.17c-.99-.03-1.26-1.56-1.1-2.37.55-2.82,2.87-2.31,6.64-2.27-.95-12.21.68-24.15,13.99-26.04,5.98-.85,11.34,3.1,11.64,9.22-2.26,1.52-4.72,2.29-7.35,1.92l-3.07-5.31c-.49-.85-1.24-1.46-2-1.58-2.32-.37-4.43,3.23-4.56,6.36l-.6,15.36,9.3.21c-.11,1.4-.51,2.58-1.04,4.11Z"/>
  <path class="cls-37" d="M500.88,918.43c-2.27-1.05-4.73.8-6.37,2.42l-.27,24.49c-2.28,2.05-6.18,3.23-7.48,2.17-.34-.28-.51-.91-.5-1.64l.1-30.63c1.98-2.08,4.77-3.05,7.51-2.72.54,1.2.4,2.35.41,3.44,3.36-1.67,7.16-3.77,11.11-3.14,3.53.56,6.01,3.93,7.86,6.39l-5.01,4.93c-2.39-2-4.4-4.34-7.35-5.71Z"/>
  <path class="cls-2" d="M527.84,944.6c-.08,2.34-5.81,4.51-7.79,3.15-.43-.29-.69-1.09-.65-1.88l1.15-20.22c.17-3.04,0-6.31,1.19-9.14s5.58-3.55,7.99-2.05l-1.33,14.24-.56,15.91Z"/>
  <path class="cls-39" d="M530.79,903.37c.65,2.25-1.38,3.78-2.81,4.34-1.83.72-4.47.65-5.4-1.34-1.05-2.24,1.15-4.36,3.39-4.73,1.66-.27,4.25-.29,4.83,1.73Z"/>
  <path class="cls-37" d="M837.61,945.62c-3.67-2.9-5.21-7.76-4.52-12.38,1.1-7.39,5.82-13.69,12.13-17.53,5.27-3.21,12.25-2.27,15.76,3.19,5.35,8.34,2.7,19.22-4.62,25.6-5.33,4.66-12.83,5.79-18.76,1.11ZM857.66,931.88c-.31-4.16-2.31-7.96-6.2-9.57-3.05-1.26-6.02-.39-8.25,1.41-2.55,2.07-3.1,4.9-2.99,8.17.18,5.43,4.01,9.43,9.81,8.91,4.91-.45,7.97-4.21,7.63-8.92Z"/>
  <path class="cls-37" d="M801.33,945.54c-3.73-2.99-5-8.09-4.27-12.78,1.09-7.04,5.81-12.93,11.63-16.74s13.29-2.27,16.64,4.06c4.22,7.97,1.82,17.59-4.5,23.88-5.26,5.24-13.33,6.53-19.5,1.58ZM821.26,932.79c.03-3.36-1.01-6.67-3.56-8.86-2.74-2.35-6.46-2.73-9.41-1.14-5.49,2.95-5.64,11.61-1.94,15.46,1.78,1.85,4.21,2.73,7.33,2.51,4.56-.33,7.55-3.62,7.59-7.96Z"/>
  <path class="cls-23" d="M882.58,948.39c-6.82-.53-11.22-5.35-11.39-11.82-.11-4.5.95-8.54,4.07-11.83,5.36-5.66,12.71-9.03,20.77-8.06l.34-16.49c.03-1.59.35-3.1,1.16-4.43,1.81-1.28,4-1.99,6.28-1.7.76.1,1.21,1.15,1.2,1.93l-.33,27.49.2,22.82c-3.29,1.46-6.67,1.56-9.8.01-4.07,1.48-8.12,2.4-12.51,2.06ZM896.43,920.34c-7.85-.88-14.98,4.13-16.73,11.59-.84,3.58.89,6.87,4.27,8.27,3.6,1.31,9.33,1.24,11.88-1.82l.58-18.04Z"/>
  <path class="cls-37" d="M613.15,923.17c2.02,7.19-.2,14.71-6.38,18.78s-18.69,7.9-25.27,4.1l1.44-48.33c.09-2.89,5.65-4.22,7.46-3.05.79.52.94,1.65.91,2.74l-.46,21.67c2.91-2,5.28-3.57,8.28-4.29,6.28-1.51,12.21,1.93,14.02,8.38ZM601.74,939.72c2.53-1.73,4.03-4.3,4.16-7.43-.02-3.96-1.51-8.01-4.68-10.39-2.9-2.18-6.81-1.18-8.39,1.89-1.66,2.77-2.24,5.75-2.41,8.93l-.59,10.97c4.66-.19,8.55-1.49,11.91-3.97Z"/>
  <path class="cls-23" d="M562.47,943.11c-6.54,3.48-17.52,6.41-23.26,2.95l.69-25.35.59-21.87c.1-3.67,3.25-4.99,6.75-4.62,1.08.11,1.56,1.25,1.54,2.25l-.45,22.84c5.47-4.3,11.44-6.52,17.1-3.19,2.55,1.5,4.64,4.51,5.43,8.01,1.73,7.67-1.22,15.16-8.4,18.98ZM560.09,939.06c5.33-4.24,3.87-12.38-.83-16.73-1.48-1.37-3.43-1.77-5.34-1.35-3.02.67-5.38,5.46-5.61,8.64l-1.04,14.1c5.25-.12,9.27-1.83,12.82-4.66Z"/>
  <path class="cls-37" d="M469,945.18l-.48-9.42c-5.09,5.46-18.84,14.45-22.75,10.9-.73-.66-1.47-2.1-1.41-3.65.32-8.62,3.99-16.75,10.21-22.76,8.87-8.56,22.6-7.36,22.52-4.23l-.36,14.94c-.12,4.9.3,9.55,1.21,14.4-1.8,1.88-4.28,2.58-6.78,2.11-1.05-.2-2.11-1.06-2.17-2.3ZM469.01,921.94c-1.2-1.8-5.19-1.74-8.65.81-4.27,3.14-7.71,7.17-9,12.43-1.9,7.74,12.9,3.05,17.86-11.06.29-.83.12-1.7-.2-2.18Z"/>
  <path class="cls-37" d="M685.02,946.54c-2.13-3.14-.72-7.05-1.2-10.67-5.05,5.18-17.88,13.96-22.26,11.14-.86-.56-1.62-1.98-1.66-3.29-.2-7.52,2.66-14.3,7.22-20.16,9.65-12.39,25.39-10.92,25.3-7.53l-.41,16.8.84,12.52c-.76,2.14-6.35,3.37-7.83,1.2ZM684.09,921.67c-3.82-3.99-15.43,4.23-17.4,14-1.43,7.07,13.17,2.08,17.75-11.1.39-1.13.27-2.25-.35-2.9Z"/>
  <path class="cls-37" d="M640.68,942.48c4.44-.32,7.98-2.3,11.27-4.89.83-.66,1.97.56,2.25,1.35s-.15,1.62-.95,2.49c-5.16,5.65-12.91,7.84-20.55,7.1-5-.49-8.91-3.57-10.03-8.6-1.2-5.38.21-11,3.26-15.63,4.7-7.15,13.4-12.69,21.25-9.86,3.13,1.13,4.75,3.92,4.12,7.24-1.47,7.78-11.13,11.86-19.3,13.05.09,4.56,3.85,8.09,8.67,7.75ZM643.09,921.38c-.26-1.41-1.5-2.34-2.42-2.53-4.62-.99-8.43,6.48-8.82,12.23,2.55-.01,4.53-.42,6.72-1.41,3.29-1.48,5.14-4.88,4.52-8.29Z"/>
  <path class="cls-32" d="M719.87,758.18l-2.07.59c-4.99-.79-10.04-.98-15.08-.76l-2.01-.83-.09-1.02,18.51-10.61-19.59-.04c-1.1,0-1.47-.54-.75-1.4l.43-.93,31.55.16.42-5.26.97-.59c.28.14.52.24.64.15,66.36-45.55,117.53-107.14,141.56-187.87,28.97-96.57,12.55-199.74-44.36-282.94-13.54-19.79-29.86-39.28-45.63-54.21-55.74-52.77-124.17-87.25-202.1-97.55-105.81-13.98-214.27,19.18-292.68,91.71-64.01,58.8-105.74,142.6-109.9,232.99-4.82,104.68,41.66,205.31,120.21,271.27l.07,1.02c.27.26.67.64.57.91-.63,1.63-2.31,4.46-3.26,6.04-.57,1.77-1.42,2.68-2.54,2.74.29-1.11-.49-1.67-1.3-2.39l-10.2-9c-20.68-18.24-38.33-39.16-54.07-61.88-10.83-15.63-20.02-31.98-28.17-49.14-5.75-12.09-10.2-24.14-14.57-36.79-5.61-16.25-9.45-32.57-12.45-49.57-6.6-37.42-6.78-75.51-.68-113.03,3.53-21.69,8.93-42.6,16.56-63.12,4.73-12.72,9.8-24.69,15.98-36.8,21.21-41.57,48.26-75.96,83.25-106.86,21.49-18.98,45.25-35.2,70.61-48.66,35.4-18.77,73.52-31.49,113.09-37.92,112.33-18.26,225.47,13.79,309.85,89.97l9.19,8.65c35.9,33.81,65.73,79.29,83.7,125.51,15.78,40.57,23.91,83.58,23.48,127.24-.23,22.88-2.86,45.44-7.57,67.81-7.6,36.07-21.06,70.57-39.79,102.26-8.81,14.91-18.64,28.91-29.42,42.41-13.53,16.93-28.59,32.12-44.83,46.5-17.32,15.33-36.4,28.41-56.28,40.07-.74.43-1.12.55-1.23,1.19Z"/>
  <path class="cls-11" d="M655.21,777.24c-4.3,4.1-7.72,8.68-10.76,13.79-.7-.42-1.22-.04-2.04.21-18.06,5.6-36.35,9.38-55.11,11.85-.68.09-1.02.25-1.19.66-4.12-1.47-8.69-6.88-7.31-11.56.72-.25,1.1.14,1.16,1.19,9.03-1.49,18.03-2.76,27.01-3.81l5.2,4.19,4.83-6.42c12.46-3.86,24.97-7.52,37.52-11l.68.9Z"/>
  <path class="cls-31" d="M497.91,774.38l.93.31.02,19.91c15.12,1.9,30.39,1.98,45.59,1.97l2.14.51c-.1,3.36.38,6.6,1.06,9.77-16.73.51-33.47.18-50.13-1.55l-.06-31.18c.47-.9.8-.71.45.27Z"/>
  <path class="cls-6" d="M374.44,759.97l-.12,11.97c-.75-.62-1.64-1.12-2.65-1.31l-.03-11.2-19.98.46c-.02-.7-.56-.75-1.18-1.13l-21.67-13.38,11.03-1.55-.94-2.45.82-.92c11.12,7.01,22.56,13.19,34.33,18.56l.39.95Z"/>
  <path class="cls-20" d="M732.16,737.46c-.81-.18-1.14-1.19-1-3.03l-18.72-.04c-.37-.02-.77-.1-1.03-.37-.84-.84-.46-8.96-.08-10.47l1-.49c4.02.02,8.02-.04,11.98-.19-.78-1.94-.77-3.37.06-4.3l.22-1.37c107.9-72.71,166.14-208.24,132.06-338.49-34.44-137.85-160.27-236.42-300.98-244.99-143.99-8.77-278.76,73.84-332.06,205.99-49.07,123.95-13.67,264.93,86.77,351.62l.35.94-10.77,19.76c-1.68-.51-2.42-1.95-3.7-3.05-8.76-7.6-17.1-15.35-25-23.83l-6.1-6.55c-43.06-47.67-71.8-106.71-82.29-170.31-4.78-28.98-5.78-58.31-2.68-87.57,3.62-34.26,12.28-67.65,26.14-99.18,15.53-35.35,36.82-67.68,62.99-95.86l19.62-19.6c9.95-9.35,20.46-17.75,31.51-25.82,54.53-39.84,119.32-63.3,186.78-68.27,50.23-3.7,100.79,2.82,148.21,19.73,45.07,16.07,86.35,40.6,121.59,72.7l7.98,7.51,6.97,6.96,8.27,8.64c21.97,24.51,40.95,51.64,55.4,81.51,22.19,45.85,33.99,96.43,33.79,147.51-.13,32.43-5.4,64.81-14.86,95.67-14.93,48.7-40.99,92.87-75.34,130.1l-18.37,18.5-6.13,5.54c-13.22,11.95-27.38,22.48-42.18,32.32-.54-.56-.31-1.01-.39-1.22Z"/>
  <path class="cls-5" d="M698.79,744.09c-.04.17.07.47.46.47l23.56.05-22.11,12.56c-17.16,1.01-33.07,8.24-45.49,20.07-1.62,0-2.82.64-4.31,1.07l-32.92,9.53c-.52.16-.81-.07-.97-.5l11.27-16.15-7.43-5.62,2-1.21c12.18-3.8,24.24-7.98,36.18-12.54,5.97-2.94,11.85-4.97,17.72-6.55.03,0-.45.17-.45-.4l.81-1.14c3.2-1.03,6.23-2.45,9.1-4.26l1.35.33c1.55-1.22,8.65-6.51,10.21-6.5.41,0,.74.24,1.03.51.36.04.9.15.93.41.1.91.21,8.79-.01,9.19-.2.36-.56.54-.93.66Z"/>
  <path class="cls-17" d="M362.82,729.51l1.35.7c4.74,9.8,15.2,15.77,26.07,14.39l1.32.74c.52.63,1.4.57,2.19.89l29.21,11.72c1.83.73,3.65.95,5.1,1.98l-53.62.04c-1.28,0-2.2-.53-3.52-1.18-10.17-5.04-20.09-10.22-29.55-16.52-.86-.57-1.47-1.04-2.47-.89l-6.55-11.61-17.61-32.75c1.27.26,2.08,1.11,3.21,2.05,13.89,11.47,28.52,21.59,43.96,30.88.29.5.73.58.81.38.07-.18.09-.73.1-.81Z"/>
  <path class="cls-33" d="M552.59,775.94c-4.11,6.34-5.77,13.6-6,21.14-16.23.9-32.31.23-48.66-1.63l-.02-21.07c1.14-.21,2.37-.14,3.81.03,11.84,1.39,23.41,1.89,35.34,1.69l15.54-.15Z"/>
  <path d="M391.56,745.35c-12.1,2.09-23.86-4.57-28.74-15.84-5.15-14.23.21-28.91,14.13-35.47,9.98-4.71,21.21-2.1,28.36,6.04l-8.07,7.75c-3.6-2.91-7.79-4.56-12.49-3.67-3.77.71-7.37,3.37-9.46,7.3-2.43,4.59-2.73,9.77-.05,14.62,2.17,3.93,6.52,7.24,11.79,7.46,3.98.17,7.5-1.6,10.49-4.36l7.62,7.63c-3.52,4.36-8.18,7.41-13.58,8.53Z"/>
  <path d="M314.74,697.02c.96.7,1.86,1.68,2.5,2.68,7.24,13.7,14.62,27.25,22.14,40.63l-.48,1.05c1.05.25,2.12,1.73,1.56,2.76s-10.17,2.29-11.65,1.23c-.67.09-2.06.55-2.47-.18l-1.73-3.1c-1.74-1.72-2.98-3.59-3.9-5.87-2.12-.04-3.99-.11-5.94-1.06l-.47.06c-4.4-.38-9.09-.39-13.49.03l-5.17,10.3-12.87-1.85,11.97-21.98,5.24-9.69-.67-.72c3.45-6.33,6.91-12.67,10.36-19.01l1.08-.04c-1.35-1.25-.05-2.08,1.76-1.03.29.17,3.46,5.22,2.24,5.78Z"/>
  <polygon class="cls-36" points="324.61 742.1 314.76 735.17 321.26 735.23 324.61 742.1"/>
  <path class="cls-36" d="M314.29,735.23l-13.49.03c.14-.27.38-.51.91-.51h11.71c.49,0,.81.2.87.48Z"/>
  <polygon class="cls-7" points="316.21 724.95 306.15 725.04 311.32 715.15 316.21 724.95"/>
  <path class="cls-14" d="M688.98,560.09c12.46,23.59,19.32,49.61,19.24,76.18l-25.91.07c-.32-22.43-5.06-44.65-13.76-65.4-16.16-38.51-46.71-71.09-85.55-87.07-22.72-9.34-46.76-12.88-71.18-9.19-52.3,7.91-94.68,44.05-116.51,91.39-9.72,21.07-15.03,43.7-15.64,67.12l45.62,2.36,112.05,5.81,87.29,4.5,8.03.58-13.65.08-68-.21-196.95-.04c-2.04-32.91,5.7-63.03,21.79-91.43,30.58-51.93,85.31-85.15,146.01-87.86-3.18-5.09-2.31-11.36,1.81-14.82s10.57-3.52,14.5-.09c4.31,3.76,4.93,9.79,1.93,14.81,16.6,1.02,32.41,3.57,47.82,8.79,22.12,7.5,42.52,18.7,60.19,33.9,16.64,14.31,30.65,31.12,40.87,50.53Z"/>
  <rect class="cls-9" x="523.64" y="446.86" width="14.43" height="429.02" transform="translate(-130.5278 1192.22) rotate(-89.9987)"/>
  <path d="M475.55,725.56c2.16,4.33,6.11,6.84,9.84,7.67,4.99,1.11,9.43-.69,13.03-4.09l7.68,7.93c-5.86,7.2-14.74,10.14-23.73,8.07-7.5-1.73-14.11-6.44-17.82-13.38-4.1-7.68-4.27-16.77-.11-25.18,3.24-6.53,9.99-12.36,18.13-14.21,8.99-2.05,17.83.91,23.76,7.75l-8.3,7.69c-4.9-4.07-11.5-5.42-16.99-1.96-6.43,4.06-8.95,12.82-5.5,19.72Z"/>
  <path d="M533.82,744.48c-3.6.34-7.24.45-10.94.31l-.09-10.78c-.25-.08-.45-.17-.45-.26-.34-10.07-.36-21.33,0-31.39,0-.16.2-.31.45-.46-.06-3.23.01-6.47.21-9.7l.6.12,33.41,27.77.06-26.66,12.95-.47-.06,52.21-34.25-28.68-.04,27.52c-.67.45-1.29.42-1.85.46Z"/>
  <path d="M519.16,744.38l-10.49.32.04-51.39c1.47-.22,12.83-.59,13.2-.02.37,13.32.51,26.91.41,40.45l-.43.48.03,9.93-2.77.24Z"/>
  <path class="cls-26" d="M523.6,692.34c-.31.04-.56.51-.57.96l-.06,11.2-.02,26.07.09,13.99,10.77-.08c-.02.42-.39.58-.88.58l-10.3-.04-.05-11.21c-.18.02-.32.07-.48.26l.06,10.43-3.01-.12,2.52-.39v-50.68s-12.97,0-12.97,0c-.14-.21.06-.48.43-.48h13.01s-.05,9.09-.05,9.09c.16.19.3.24.47.26l.04-10.23c.64-.3.84.15.97.38Z"/>
  <path d="M460.16,718.71c0,15.09-12.23,27.33-27.33,27.33s-27.33-12.23-27.33-27.33,12.23-27.33,27.33-27.33,27.33,12.23,27.33,27.33ZM432.73,703.88c-8.18,0-14.81,6.63-14.81,14.81s6.63,14.81,14.81,14.81,14.81-6.63,14.81-14.81-6.63-14.81-14.81-14.81Z"/>
  <path d="M610.7,735.26l-20.47-.05-5.29,10.33-12.91-1.94,28.55-52.17,28.69,52.37-13.35,1.79-5.23-10.32ZM600.63,715.07l-5.13,10.02,10.19-.12-5.06-9.9Z"/>
  <path class="cls-12" d="M668.55,570.93c.08.49-.08,1.01-.38,1.07l-1.02.2c-39.94,20.3-84.23,30.29-129.13,30.47-49.58.19-98.09-11.63-141.46-35.41-.81-.44-1.21-.44-1.26-1.19-.02-.54-.01-1.07.06-1.59s.15-1.01.35-1.46c24.03-52.37,78.44-91.45,136.93-90.7,58.89.76,113.12,42,135.59,95.53.19.45.25.96.31,1.48s.04,1.07,0,1.6Z"/>
  <path class="cls-25" d="M688.98,560.09c-.9-.74-1.8-1.52-2.42-2.51-7.09-11.34-13.22-20.98-22.3-31.01-31.59-34.9-75.64-56.17-122.66-58.68-2.18-.13-2.52-1.65-.99-4.54,3.05-19.33-26.02-15.51-18.38,2.41.15,1.6.17,2.3-1.86,2.21-41.8,2.21-81.69,19.26-112.18,47.89-12.32,11.57-20.44,22.91-29.88,36.7-.64.93-1.55,1.62-2.46,2.28-10.16-7.26-20.08-14.62-29.38-23.21l-17.45-17.5c-47.74-52.74-68.58-123.57-49.69-193.18,21.53-79.31,85.59-137.23,162.08-163.21,66.2-22.49,138.73-20.65,203.75,4.82,29.99,11.75,57.48,28.59,81.3,50.05l16.82,16.83c12.17,13.35,22.54,27.87,31.32,43.69,21.11,38.05,30.6,83.46,24.47,126.67-9.6,67.66-51.98,124.61-109.26,160.03-.36.17-.74.13-.83.28Z"/>
  <path class="cls-22" d="M619.95,470.74c3.75-11.65,6.58-22.7,6.89-34.68.18-6.83-.25-13.33-1.85-19.93l-5.11-21.01c-2.64-10.87-5.19-21.42-5.47-32.7-.58-23.47,9.67-51.37,20.54-72.15l9.31-15.76c-9.27,27.29-12.26,51.6-8.88,80.44l2.79,23.79,2.15,26.6c.48,25.1-4.31,45.28-20.36,65.39Z"/>
  <path class="cls-21" d="M609.49,253.63l-4.75,1.36c-1.21-.29-2.2-1.15-2.99-2.58.14,3.22-.72,4.04-3.66,5.02,2.65.88,3.66,2.04,3.32,4.97,1.91-2.9,3.19-2.97,6.24-1.69.24.1,1.34.78,1.35.86,0,.05-.89.07.17-.39,3.27-.5,1.85,5.05,1.31,7.12-4.07,15.44-8.63,30.99-13.69,45.6l-.1,1.47-9.98,29.01-.67-1.15c-.67.4-.95.11-1.28-.43-.68,3-1.96,3.39-4.83,3.31,3.12,1.93,2.97,3.48,1.78,6.68l.58.34c.5-.17.82-.04.92.44-3.41,12.23-6.07,24.59-8,37.09-.27,1.96-.62,2.45-2.63,2.38-.92-.03-6.61-1.8-7.4-2.36-1.77-1.25-5.1-4.04-4.8-6.23,1.07-15.45,3.73-31.39,8.38-46.28.14-.11.36-.37.54-.41.12-1.13,1.14-1.6,3.06-1.41.93.83,1.7,1.8,2.33,2.91.26-2.94.93-3.93,3.57-4.83-2.35-.58-3.23-2.33-2.65-5.25-1.43,2.27-4.17,4.16-5.09,1.03l.44-2.9,8.3-28.48,6.77-26.22c.47-.08.61.13.69.25.2.06.37.14.42.27.02.05,0,.59,0,.76-.03.33.46-6.41,1.86-6.06,3.12.2,3.39-.35.82-1.66-.72-1.26-.62-2.8.31-4.63.56-.65.73-1.17.5-1.58-1.32.75-1.35.65-1.48-.68l3.06-18.93c2.03-1.21,4.74-.98,6.51.65,2.19,3.27,3.71,3.91,4.55,1.91-3.68-2.42-.25-5.75,2.08-7.88,1.38-1.26,4.77-4.28,6.51-3.47,3.33,1.55,2.03,11.98,1.6,15.1l-2.09,1.65c1.25,1.98,2.48,6.84-.86,6.75-1-.03-1.34-.46-1.04-1.44Z"/>
  <path class="cls-8" d="M596.7,315.39c-.72-.69-.29-1.44.01-2.37l3.58-10.94c3.85-11.78,7.63-23.34,10.17-35.5.46-2.2.18-3.93-1.27-5.38-.96.67-2.49-1.21-2.79-2.14-.79-2.49.42-5.31,3.1-5.42.25.42,1.74.9,2.06.11.77-1.86-.45-3.84-1.39-5.44.74-1.02,1.78-1.39,2.63-2.1,2-7.04.11-15.8-2.75-13.59l-4.03,3.12-2.58,2.92c-.53.59-1.15,1.18-1.01,1.81.12.57.66.96,1.21,1.38.89.68.67,1.86.08,2.47-.52.54-1.36.88-2.22.66-2.73-.72-2.57-5.81-8.66-4.04l-2.91,16.85c-.08.44-.36,1.39-.04,1.78.18.21.38.27.77.42.41,1.18-.78,2.46-1.99,1.79l-.14-2.06c1.9-8.18,2.77-16.08,3.57-24.53,1.77-18.67.39-36.89-4.11-55.04-2.01-8.11-4.02-15.8-7.43-23.36-.37-.82-.43-1.46-.3-2.08.08-.42,1.16-1.6,1.58-1.11,6.89,7.95,13.13,15.98,18.12,25.3,8.86,16.54,13.93,34.64,14.52,53.49.43,14.01-1.12,27.5-4.83,40.84l-5.37,19.36-7.57,22.79Z"/>
  <path class="cls-13" d="M568.77,338.2c-3.27,13.13-6.13,26.33-7.48,40.05-.26,2.63-.75,4.79-.24,7.39l4.54,4.18c1.5,1.39,3.85,1.12,5.65,1.8,1,.37,1.79.84,2.66.4.8-.4.92-1.41,1.09-2.43l1.95-11.64.97-6.6,2.48-8.57,1.24-4.33c.5-1.75,1.55-3.6.67-5.29-.33-1.54.9-2.16,1.92-.96l-6.01,23.95c-6.83,31.76-4.69,57.6,6.04,88.52-7.34-9.69-13.37-19.59-17.5-30.78-6.15-16.7-8.23-34.43-6.63-52.13,1.35-14.94,4.03-29.27,7.88-43.55.49.06.72.02.78,0Z"/>
  <path class="cls-34" d="M569.32,337.79c-.27-.05-.52-.09-.84-.32,1.41-2.24,1.68-4.74,2.06-7.23l2.35.89c1.16-1.62,2.24-2.93,3.7-4.21l-.04,5.78,4.56,1.97-4.88,1.68-.99,5.35-3.13-4.54-2.78.63Z"/>
  <path class="cls-30" d="M586.04,343.25v1.46c-.29,1.87-.79,3.73-1.48,5.6-.01.54-.21,1.34-.35,1.88-.79.08-1.34.52-1.92.96-.46.35-1.02.68-1.8.77l1.3-5.02-4.24-3.53,5.39-.38,1.88-4.99,1.21,3.26Z"/>
  <path class="cls-1" d="M586.74,272.89l1.92-11.12c.6-.71,1.33-1.21,1.99-1.79.21-.06.52-.17.95.01l-1.55,5.13c1.31,1.31,2.99,1.88,4.04,3.48-2.05.09-3.77-.18-5.49.32l-1.36,5.52c-.61-.59-.4-1.17-.49-1.54Z"/>
  <path class="cls-21" d="M584.56,350.31c.05-2,1.01-3.69,1.49-5.6.13.29.53.59.29,1.23l-1.79,4.38Z"/>
  <path class="cls-29" d="M609.49,253.63c-.97,1.06-2.36,2.45-2.73,3.95.37,1.26,1.58,2.78,2.41,3.62.05.28.12.57.05.96l-5.11-1.5-3.49,4.13c-.55-1.87.28-4.1-.51-5.39l-4.48-2.07,4.95-1.97.44-5.47,3.28,4.29,3.8-1.15c.43-.13.96-.1,1.09.11l.29.49Z"/>
  <path class="cls-24" d="M527.32,246.89c1.97,3.17,3.82,6.42,5.56,9.75,2.18,3.8,4.4,8.05,5.71,12.07,13.88,26.96,17.93,57.41,11.38,86.57-7.76,26.4-12.83,52.53-2.77,78.7.2.73.07,1.03-.72.78l-1.9-2.38-.04-.64c-5.72-8.17-10.05-17.35-12.59-26.9-3.35-13.02-4-27.67-3.24-40.97l4.24-35.94c2.7-21.22,3.44-43.35-1.57-64.73-.19-.02-.34-.04-.36-.12-1.71-5.17-3.65-11.06-5.06-16.29-.41-1.53.58-1.22,1.36.1Z"/>
  <path class="cls-10" d="M546.48,434.76c.68-.8.18-1.44-.13-2.37-2.51-7.66-4.31-15.37-4.88-23.48l-.08-13.9c.92-11.42,3.61-22.27,6.63-33.3,2.51-9.15,4.18-17.98,4.69-27.42l.07-10.49-.43-5.18-.44-4.67c-1.5-15.96-6.62-30.99-13.33-45.23-.2-.65-.18-.79.46-.47,7.52,15.39,12.32,32.03,13.84,49.38l.38,4.3-.07,15.21c-.59,8.05-2.12,15.47-4.21,23.27-3.17,11.85-6.04,23.42-7.04,35.72-1.12,13.84,1.83,27.31,6.46,40.3-1.16-.05-1.51-1.12-1.94-1.66Z"/>
  <path class="cls-27" d="M531.95,404.84c.21.24.2.39-.1.52-1.73-6.41-3.34-12.94-3.39-19.87l-.15-21.63.47-4.24,2.96-23.94,2.47-23.56.42-4.72-.08-19.87c-.51-8.25-1.86-16.08-3.71-23.85-.01-.57-.01-.77.54-.49,1.94,6.38,3.01,13.1,3.45,20.02l.5,7.91c.29,4.62.27,8.92,0,13.53l-.5,8.81-1.49,14.51-3.59,28.44-.49,5.07-.44,7.47.07,13.33c.04,7.09,1.27,13.88,2.99,20.79l.06,1.77Z"/>
  <path class="cls-38" d="M544.58,432.38c-5.71-8.24-10.38-17.3-12.73-27.02.17-.16.11-.39.1-.52.31.24.52.62.69,1.2,2.63,9.22,6.71,17.69,12.21,25.55.25.36.14.73-.27.79Z"/>
  <path class="cls-3" d="M527.32,246.89c-.18-.13-.6-.4-1.02-.42l5.09,16.72-.54.49c-1.76-7.42-4.51-14.41-7.11-22.08,2.06,1.31,2.71,3.63,3.58,5.29Z"/>
  <path class="cls-16" d="M539.05,268.24l-.46.47-5.71-12.07c.5.21.8.61,1.1,1.22l5.07,10.38Z"/>
  <path class="cls-40" d="M532.88,256.64c-.69-.29-1-1.07-1.42-1.85l-4.14-7.9c1.39.77,1.85,2.73,2.78,4.1,1.29,1.91,1.93,3.82,2.78,5.64Z"/>
  <path d="M724.36,718.58l1.11,5.33-13.56.1-.03,9.46,20.46.04-.19,3.96-.42,6.79h-9.31s-23.64-.16-23.64-.16v-10.27s-.92-.32-.92-.32l.06-39.71c0-.87.54-1.34,1.36-1.49l30.74.04c.37.02.77.1,1.04.36.64.64.8,11.26.26,11.96-.1.13-.24.23-.39.31-6,.17-12,.29-18,.34v6.4s9.45.11,9.45.11c2.17.53,3.12,5.01,1.97,6.76Z"/>
  <path d="M687.56,739.82c-3.63,1.91-7.04,4.25-11.25,5.06-2.71.83-5.66,1.06-8.76,1.07l-17.82.07-.06-53.43,19.76-.22c7.92-.09,15.15,3.58,20.62,9.2,9.71,11.24,8.44,28.4-2.49,38.25ZM663.37,704.42l.02,29.72,7.31-.38c7.83-1.2,13.25-7.76,12.58-15.93-.84-10.29-9.98-14.41-19.92-13.41Z"/>
</svg>